<svg height="16" viewBox="0 0 32 32" width="16" xmlns="http://www.w3.org/2000/svg"><path d="m22.485 25.985c-.384 0-.768-.146-1.061-.439-.586-.586-.586-1.535 0-2.121 4.094-4.094 4.094-10.755 0-14.849-.586-.586-.586-1.536 0-2.121s1.536-.586 2.121 0c2.55 2.55 3.954 5.94 3.954 9.546s-1.404 6.996-3.954 9.546c-.293.293-.677.439-1.061.439zm-5.328-2.828c-.384 0-.768-.146-1.061-.439-.586-.586-.586-1.535 0-2.121 2.534-2.534 2.534-6.658 0-9.192-.586-.586-.586-1.536 0-2.121s1.535-.586 2.121 0c3.704 3.704 3.704 9.731 0 13.435-.293.293-.677.439-1.061.439z"/><path d="m13 30c-.26 0-.516-.102-.707-.293l-7.707-7.707h-3.586c-.552 0-1-.448-1-1v-10c0-.552.448-1 1-1h3.586l7.707-7.707c.286-.286.716-.372 1.09-.217s.617.519.617.924v26c0 .404-.244.769-.617.924-.124.051-.254.076-.383.076z"/></svg>