<svg height="16" viewBox="0 0 18 16" width="18" xmlns="http://www.w3.org/2000/svg"><g fill="#fff"><path d="m3.5 2h-3c-.275 0-.5.225-.5.5v11c0 .275.225.5.5.5h3c.275 0 .5-.225.5-.5v-11c0-.275-.225-.5-.5-.5zm-.5 3h-2v-1h2z"/><path d="m8.5 2h-3c-.275 0-.5.225-.5.5v11c0 .275.225.5.5.5h3c.275 0 .5-.225.5-.5v-11c0-.275-.225-.5-.5-.5zm-.5 3h-2v-1h2z"/><path d="m11.954 2.773-2.679 1.35c-.246.124-.345.426-.222.671l4.5 8.93c.124.246.426.345.671.222l2.679-1.35c.246-.124.345-.426.222-.671l-4.5-8.93c-.124-.246-.426-.345-.671-.222z"/><path d="m14.5 13.5c0 .276-.224.5-.5.5s-.5-.224-.5-.5.224-.5.5-.5.5.224.5.5z"/></g></svg>