<svg enable-background="new 0 0 401.948 401.949" height="401.949" viewBox="0 0 401.948 401.949" width="401.948" xmlns="http://www.w3.org/2000/svg"><path fill="#0D1953" d="m397 190.734-168.262-117.29c-6.599-5.632-11.996-3.147-11.996 5.528v49.068c0 8.672-7.099 15.77-15.77 15.77l-104.176.156h-81.106v.125c-8.639.048-15.688 7.123-15.69 15.766l.002 82.789c0 8.673 7.095 15.771 15.765 15.771l183.426-.275h1.834c8.647.028 15.717 7.107 15.717 15.765v49.067c0 8.675 5.397 11.163 11.993 5.535l168.265-117.294c6.596-5.636 6.596-14.848-.002-20.481z"/></svg>